<?xml version="1.0" encoding="UTF-8"?>
<svg version="1.1" xmlns="http://www.w3.org/2000/svg" width="64" height="64">
<path d="M0 0 C7.29779412 -0.48651961 7.29779412 -0.48651961 10.23828125 1.55078125 C13.2499927 5.73779473 12.43855599 10.37411496 12.43359375 15.37109375 C13.13092116 19.83879835 14.58188603 21.15930498 18 24 C18.66 24.66 19.32 25.32 20 26 C19.9375 28.375 19.9375 28.375 19 31 C16.5 33.1875 16.5 33.1875 14 35 C12.28322573 38.43354855 12.71289898 42.60723077 12.65820312 46.4140625 C12.51673358 49.75669185 12.19988258 51.7232395 10.22265625 54.4609375 C6.68537801 56.91030064 4.20995608 56.28066374 0 56 C0 54.68 0 53.36 0 52 C0.969375 51.71125 1.93875 51.4225 2.9375 51.125 C6.10664203 50.35785318 6.10664203 50.35785318 7 48 C7.16540868 44.86091078 7.29663839 41.72896829 7.34179688 38.5859375 C7.49004919 35.08304562 7.70854017 33.33548531 10.04296875 30.6484375 C10.68878906 30.10445312 11.33460937 29.56046875 12 29 C12 28.34 12 27.68 12 27 C11.35160156 26.45472656 10.70320313 25.90945312 10.03515625 25.34765625 C6.88563684 21.71452541 7.45500996 18.04648418 7.42382812 13.40039062 C7.3500682 9.48525146 7.3500682 9.48525146 5.609375 6.078125 C3.76449377 4.84223369 2.17847542 4.37559921 0 4 C0 2.68 0 1.36 0 0 Z " fill="#FFE200" transform="translate(40,4)"/>
<path d="M0 0 C0 1.32 0 2.64 0 4 C-0.969375 4.28875 -1.93875 4.5775 -2.9375 4.875 C-6.10664203 5.64214682 -6.10664203 5.64214682 -7 8 C-7.16540868 11.13908922 -7.29663839 14.27103171 -7.34179688 17.4140625 C-7.49004919 20.91695438 -7.70854017 22.66451469 -10.04296875 25.3515625 C-10.68878906 25.89554688 -11.33460937 26.43953125 -12 27 C-12 27.66 -12 28.32 -12 29 C-11.35160156 29.54527344 -10.70320312 30.09054688 -10.03515625 30.65234375 C-6.88563684 34.28547459 -7.45500996 37.95351582 -7.42382812 42.59960938 C-7.3500682 46.51474854 -7.3500682 46.51474854 -5.609375 49.921875 C-3.76449377 51.15776631 -2.17847542 51.62440079 0 52 C0 53.32 0 54.64 0 56 C-7.29779412 56.48651961 -7.29779412 56.48651961 -10.23828125 54.44921875 C-13.2499927 50.26220527 -12.43855599 45.62588504 -12.43359375 40.62890625 C-13.13092116 36.16120165 -14.58188603 34.84069502 -18 32 C-18.66 31.34 -19.32 30.68 -20 30 C-19.9375 27.625 -19.9375 27.625 -19 25 C-16.5 22.8125 -16.5 22.8125 -14 21 C-12.28322573 17.56645145 -12.71289898 13.39276923 -12.65820312 9.5859375 C-12.51673358 6.24330815 -12.19988258 4.2767605 -10.22265625 1.5390625 C-6.68537801 -0.91030064 -4.20995608 -0.28066374 0 0 Z " fill="#FFE200" transform="translate(24,4)"/>
<path d="M0 0 C3.1850357 1.76015131 3.83296972 2.49890916 5 6 C5.22718496 8.56634861 5.41608184 11.11678107 5.5625 13.6875 C5.60568359 14.38939453 5.64886719 15.09128906 5.69335938 15.81445312 C5.7991736 17.54275206 5.90006581 19.2713511 6 21 C4.88625 20.979375 3.7725 20.95875 2.625 20.9375 C-0.83215921 20.73619282 -0.83215921 20.73619282 -3 22 C-7.05142119 22.25860135 -8.54337669 22.30441554 -12 20 C-12.39127335 16.91872237 -12.63246134 14.94546281 -12 12 C-9.07175551 9.16049019 -7.25938651 9.01275671 -3.1875 8.8125 C-2.135625 8.874375 -1.08375 8.93625 0 9 C-0.66 7.68 -1.32 6.36 -2 5 C-2.721875 5.144375 -3.44375 5.28875 -4.1875 5.4375 C-8.09375 6.21875 -8.09375 6.21875 -12 7 C-12 5.35 -12 3.7 -12 2 C-7.87484127 -0.00007696 -4.5659292 -0.41508447 0 0 Z M-6 13 C-6.66 14.32 -7.32 15.64 -8 17 C-5.65466049 17.76956136 -5.65466049 17.76956136 -3 18 C-1.12359581 16.79081118 -1.12359581 16.79081118 0 15 C0 14.34 0 13.68 0 13 C-1.98 13 -3.96 13 -6 13 Z " fill="#FFD600" transform="translate(35,20)"/>
</svg>
